<svg preserveAspectRatio="none" width="100%" height="100%" overflow="visible" style="display: block;" viewBox="0 0 42 50" fill="none" xmlns="http://www.w3.org/2000/svg">
<g id="Group 1321327271">
<path id="Vector" d="M23.5144 10.57C24.6366 10.1125 25.6548 9.4322 26.5078 8.57C27.6338 7.46836 28.5293 6.1527 29.1419 4.7C29.6642 3.46024 29.955 2.13497 30 0.79V0.29L29.9401 0C27.2718 0.512374 24.8771 1.97155 23.1951 4.11C21.7998 6.13863 21.0359 8.53633 21 11L22.3171 10.83C22.7214 10.7692 23.1213 10.6824 23.5144 10.57Z" fill="var(--fill-0, #323333)"/>
<path id="Vector_2" d="M41.4519 35.7792C39.873 34.8407 35.6591 32.3516 35.6591 26.598C35.6132 24.7615 35.9775 22.9378 36.7257 21.2584C37.4739 19.579 38.5874 18.0857 39.9858 16.8862C40.1919 16.6938 40.3163 16.4303 40.3334 16.1496C40.3506 15.8689 40.2592 15.5922 40.078 15.3764C37.8327 12.469 35.1567 11 32.1219 11C30.0068 11.1161 27.9472 11.7166 26.1035 12.7546C24.7385 13.5433 23.2159 14.0239 21.6436 14.1624C20.0958 14.0328 18.6034 13.5285 17.2964 12.6934C15.6965 11.6955 13.8704 11.1132 11.9855 11C7.35123 11.0204 0 15.2438 0 26.598C0.0441298 33.9349 2.69949 41.0189 7.49477 46.5927L7.62805 46.7559C8.44828 47.7761 10.386 50 13.3491 50C14.8508 49.9191 16.3261 49.5737 17.7065 48.9799C18.9512 48.42 20.2826 48.075 21.6436 47.9597C23.1589 48.0822 24.6478 48.4259 26.0625 48.9799C27.4341 49.535 28.8827 49.879 30.3584 50C33.1984 50 34.4595 48.7146 36.0282 47.0926C38.5164 44.0961 40.5098 40.7249 41.9338 37.1054C42.022 36.8632 42.0221 36.5979 41.934 36.3556C41.846 36.1133 41.6754 35.9093 41.4519 35.7792Z" fill="var(--fill-0, #323333)"/>
</g>
</svg>
