<svg preserveAspectRatio="none" width="100%" height="100%" overflow="visible" style="display: block;" viewBox="0 0 40 40" fill="none" xmlns="http://www.w3.org/2000/svg">
<g id="Group 1321327403">
<circle id="Ellipse 4854" cx="20" cy="20" r="20" fill="#507DCE"/>
<path id="Vector" d="M26.7389 10H16.3418C14.657 10 13.0566 10.6173 11.8652 11.7396C10.6739 12.862 10 14.3434 10 15.9259V26.9585C10 28.642 11.4681 30 13.2611 30H23.6582C25.343 30 26.9434 29.3827 28.1348 28.2604C29.3381 27.138 30 25.6566 30 24.0853V13.0415C30 11.3692 28.5319 10 26.7389 10ZM24.994 24.6689H14.9819C14.6209 24.6689 14.3321 24.3996 14.3321 24.0629C14.3321 23.7262 14.6209 23.4568 14.9819 23.4568H24.994C25.355 23.4568 25.6438 23.7262 25.6438 24.0629C25.6438 24.3996 25.355 24.6689 24.994 24.6689ZM14.3321 20.0224C14.3321 19.6857 14.6209 19.4164 14.9819 19.4164H21.6486C22.0096 19.4164 22.2984 19.6857 22.2984 20.0224C22.2984 20.3591 22.0096 20.6285 21.6486 20.6285H14.9819C14.6209 20.6285 14.3321 20.3591 14.3321 20.0224ZM24.994 16.4871H14.9819C14.6209 16.4871 14.3321 16.2177 14.3321 15.881C14.3321 15.5443 14.6209 15.275 14.9819 15.275H24.994C25.355 15.275 25.6438 15.5443 25.6438 15.881C25.6438 16.2177 25.355 16.4871 24.994 16.4871Z" fill="white"/>
</g>
</svg>
